<?xml version="1.0" standalone="no"?>
<!DOCTYPE svg PUBLIC "-//W3C//DTD SVG 20010904//EN"
 "http://www.w3.org/TR/2001/REC-SVG-20010904/DTD/svg10.dtd">
<svg version="1.0" xmlns="http://www.w3.org/2000/svg"
 width="100.000000pt" height="100.000000pt" viewBox="0 0 100.000000 100.000000"
 preserveAspectRatio="xMidYMid meet">
<metadata>
Created by potrace 1.10, written by Peter Selinger 2001-2011
</metadata>
<g transform="translate(0.000000,100.000000) scale(0.100000,-0.100000)"
fill="#000000" stroke="none">
<path d="M799 866 c-9 -20 -9 -29 1 -41 28 -34 87 5 64 43 -18 28 -52 27 -65
-2z"/>
<path d="M568 863 c-7 -10 -27 -26 -43 -35 -71 -40 -58 -82 26 -84 50 -1 51
-1 7 3 -26 2 -52 11 -59 20 -11 13 -9 19 16 39 17 13 35 22 42 20 6 -3 13 4
16 15 7 27 34 34 56 15 10 -9 25 -14 33 -11 18 7 44 -20 28 -30 -5 -3 -10 -12
-10 -18 0 -7 4 -6 10 3 8 13 11 13 26 -2 22 -21 6 -45 -34 -51 -26 -4 -26 -4
4 -6 32 -1 54 14 54 37 0 26 -52 82 -76 82 -12 0 -26 5 -29 10 -10 16 -53 11
-67 -7z"/>
<path d="M414 856 c-105 -26 -203 -109 -250 -211 -26 -56 -43 -178 -27 -188 5
-4 9 9 8 30 -1 27 4 37 20 43 11 5 14 9 8 9 -18 1 -16 40 2 47 11 5 12 10 6
18 -11 14 -3 56 10 56 5 0 9 7 9 16 0 9 27 42 59 74 59 58 88 73 201 103 66
18 27 21 -46 3z"/>
<path d="M354 776 c-3 -9 -12 -16 -19 -16 -15 0 -28 -27 -19 -41 8 -14 118
-11 138 4 21 15 12 47 -14 47 -11 0 -22 5 -25 10 -3 6 -14 10 -23 10 -13 0
-13 -2 4 -15 10 -8 27 -15 37 -15 12 0 17 -6 15 -17 -5 -25 -118 -33 -118 -8
0 8 6 15 14 15 14 0 31 29 21 38 -2 3 -7 -3 -11 -12z"/>
<path d="M854 769 c-10 -17 13 -36 27 -22 12 12 4 33 -11 33 -5 0 -12 -5 -16
-11z"/>
<path d="M114 719 c-10 -17 13 -36 27 -22 12 12 4 33 -11 33 -5 0 -12 -5 -16
-11z"/>
<path d="M313 643 c3 -27 9 -56 12 -65 6 -14 2 -18 -18 -18 -30 0 -52 -45 -44
-90 4 -16 2 -32 -4 -36 -6 -3 -8 -13 -5 -20 3 -8 -8 -39 -25 -69 l-31 -55 44
0 c24 0 49 5 56 12 9 9 12 9 13 -2 1 -8 1 -18 0 -22 0 -5 27 -7 61 -7 35 1 55
3 46 6 -10 2 -15 10 -11 19 7 20 99 20 106 0 4 -11 -4 -16 -31 -19 -20 -2 35
-4 123 -5 88 0 151 3 141 7 -14 5 -16 10 -8 15 7 4 12 28 12 53 0 32 5 50 18
59 14 10 15 15 5 25 -9 9 -13 44 -13 100 0 83 1 88 23 91 16 2 23 11 25 31 l3
27 -145 0 -146 0 0 -29 c0 -16 4 -31 8 -33 5 -1 12 -15 16 -30 6 -26 4 -28
-23 -28 -20 0 -30 6 -34 20 -3 12 -14 20 -27 20 -13 0 -24 -8 -27 -20 -4 -13
-14 -20 -30 -20 -20 0 -24 4 -18 18 3 9 9 38 12 65 l6 47 -48 0 -48 0 6 -47z
m77 22 c0 -10 -11 -15 -35 -15 -24 0 -35 5 -35 15 0 10 11 15 35 15 24 0 35
-5 35 -15z m394 -1 c13 -5 14 -9 5 -20 -16 -20 -259 -20 -259 -1 0 8 3 17 7
20 8 9 226 9 247 1z m-404 -33 c0 -5 -3 -23 -6 -40 -7 -33 -34 -44 -34 -13 0
9 -3 27 -6 40 -5 19 -2 22 20 22 14 0 26 -4 26 -9z m360 -101 l0 -91 -77 3
-77 3 -13 65 c-7 36 -15 75 -18 88 -5 22 -4 22 90 22 l95 0 0 -90z m-353 7 c6
-4 14 -1 16 5 4 10 8 9 16 -2 7 -10 11 -11 11 -2 0 7 13 12 30 12 26 0 30 -4
31 -27 l2 -28 4 28 c5 29 23 38 23 10 0 -15 1 -15 13 2 13 16 15 14 25 -28 16
-62 15 -67 -8 -67 -16 0 -20 7 -22 38 l-1 37 -4 -37 c-5 -44 -22 -51 -24 -10
l-2 27 -4 -27 c-4 -23 -9 -28 -34 -28 -16 0 -29 5 -29 13 0 8 -4 7 -10 -3 -9
-13 -11 -13 -20 0 -6 10 -10 11 -10 3 0 -9 -16 -13 -45 -13 -44 0 -45 1 -46
33 l-1 32 -8 -30 c-7 -27 -8 -26 -9 15 0 32 2 41 9 30 8 -13 10 -13 10 2 0 22
59 32 87 15z m373 -117 c0 -6 -88 -10 -245 -10 -157 0 -245 4 -245 10 0 6 88
10 245 10 157 0 245 -4 245 -10z m-464 -62 c-9 -53 -12 -58 -42 -58 -29 0 -29
-1 -2 55 29 59 53 61 44 3z m444 25 c0 -13 -3 -14 -12 -5 -19 19 -59 14 -85
-10 l-23 -22 -16 22 c-15 21 -62 31 -78 15 -8 -8 -125 -8 -133 1 -11 10 -59 6
-71 -6 -9 -9 -12 -8 -12 5 0 15 19 17 215 17 196 0 215 -2 215 -17z m-352 -19
c28 -19 28 -38 0 -66 -21 -21 -22 -21 -29 -2 -4 10 -8 13 -8 7 -1 -7 -6 -13
-12 -13 -6 0 -9 7 -5 15 3 8 0 14 -6 12 -20 -4 -19 22 1 42 25 25 30 26 59 5z
m198 0 c18 -15 18 -15 -6 -10 -14 3 -31 6 -38 6 -7 0 -10 5 -7 10 9 14 28 12
51 -6z m134 -4 c25 -25 25 -35 1 -59 -23 -23 -57 -18 -72 10 -13 25 16 27 30
2 6 -10 11 -12 11 -5 0 6 6 12 13 12 8 0 14 7 14 15 0 8 -4 12 -9 9 -4 -3 -8
1 -9 8 0 10 -2 10 -6 1 -5 -15 -43 -18 -43 -3 0 9 28 29 43 30 4 0 16 -9 27
-20z m-220 -15 c0 -22 -4 -25 -40 -25 -22 0 -40 5 -40 10 0 6 6 10 13 11 10 0
10 2 0 6 -27 10 -11 23 27 23 36 0 40 -2 40 -25z m53 -22 c-3 -27 -3 -27 8 -5
7 12 20 22 31 22 23 0 23 -15 -1 -39 -23 -23 -57 -18 -72 10 -12 23 -4 39 20
39 14 0 17 -6 14 -27z m91 -28 c4 -11 -1 -15 -19 -15 -18 0 -23 4 -19 15 4 8
12 15 19 15 7 0 15 -7 19 -15z"/>
<path d="M604 586 c-13 -34 4 -47 53 -44 44 3 48 5 48 28 0 23 -4 25 -48 28
-35 2 -49 -1 -53 -12z m96 -16 c0 -17 -7 -20 -45 -20 -38 0 -45 3 -45 20 0 17
7 20 45 20 38 0 45 -3 45 -20z"/>
<path d="M844 512 c0 -95 -3 -114 -27 -166 -16 -32 -26 -60 -23 -63 8 -8 55
102 67 155 10 50 6 120 -9 163 -4 10 -7 -30 -8 -89z"/>
<path d="M122 398 c-23 -23 -7 -68 24 -68 14 0 44 27 44 40 0 13 -30 40 -44
40 -6 0 -17 -5 -24 -12z"/>
<path d="M794 249 c-10 -17 13 -36 27 -22 12 12 4 33 -11 33 -5 0 -12 -5 -16
-11z"/>
<path d="M264 221 c49 -54 191 -99 274 -86 67 10 143 41 182 74 33 27 29 26
-49 -12 -78 -39 -89 -42 -171 -42 -83 0 -92 2 -170 42 -48 24 -75 34 -66 24z"/>
<path d="M234 139 c-10 -17 13 -36 27 -22 12 12 4 33 -11 33 -5 0 -12 -5 -16
-11z"/>
</g>
</svg>
